<svg width="44" height="44" viewBox="0 0 44 44" fill="none" xmlns="http://www.w3.org/2000/svg">
<circle cx="22" cy="22" r="22" fill="white"/>
<path d="M31.2854 14.5144C31.1498 14.3777 30.9886 14.2692 30.8108 14.1952C30.6331 14.1211 30.4425 14.083 30.25 14.083C30.0575 14.083 29.8669 14.1211 29.6892 14.1952C29.5114 14.2692 29.3502 14.3777 29.2146 14.5144L18.35 25.3935L13.7854 20.8144C13.6447 20.6784 13.4785 20.5715 13.2964 20.4997C13.1143 20.428 12.9199 20.3928 12.7242 20.3962C12.5285 20.3996 12.3354 20.4415 12.156 20.5195C11.9765 20.5975 11.8141 20.7101 11.6781 20.8508C11.5422 20.9916 11.4352 21.1578 11.3635 21.3398C11.2917 21.5219 11.2565 21.7164 11.2599 21.912C11.2633 22.1077 11.3052 22.3008 11.3832 22.4803C11.4612 22.6598 11.5738 22.8222 11.7146 22.9581L17.3146 28.5581C17.4502 28.6948 17.6114 28.8033 17.7892 28.8773C17.9669 28.9514 18.1575 28.9895 18.35 28.9895C18.5425 28.9895 18.7331 28.9514 18.9108 28.8773C19.0886 28.8033 19.2498 28.6948 19.3854 28.5581L31.2854 16.6581C31.4334 16.5216 31.5516 16.3558 31.6324 16.1713C31.7132 15.9869 31.7549 15.7877 31.7549 15.5863C31.7549 15.3849 31.7132 15.1856 31.6324 15.0012C31.5516 14.8167 31.4334 14.6509 31.2854 14.5144Z" fill="#EC008C"/>
</svg>
