<svg width="49" height="48" viewBox="0 0 49 48" fill="none" xmlns="http://www.w3.org/2000/svg">
<path fill-rule="evenodd" clip-rule="evenodd" d="M24.6432 0.179962C11.4146 0.179962 0.687622 11.0879 0.687622 24.5445C0.687622 35.3096 7.55162 44.4426 17.0699 47.6643C18.2671 47.8899 18.7067 47.1358 18.7067 46.4923C18.7067 45.9113 18.6845 43.9919 18.6741 41.956C12.0097 43.4299 10.6034 39.0813 10.6034 39.0813C9.51367 36.265 7.94356 35.5162 7.94356 35.5162C5.77007 34.0039 8.10739 34.035 8.10739 34.035C10.5129 34.2065 11.7796 36.5458 11.7796 36.5458C13.9162 40.2707 17.3837 39.1938 18.7507 38.5713C18.9657 36.9969 19.5865 35.9213 20.2716 35.3132C14.9508 34.6971 9.35737 32.6079 9.35737 23.272C9.35737 20.6119 10.2932 18.4383 11.8256 16.7321C11.5769 16.118 10.7569 13.6402 12.0577 10.2841C12.0577 10.2841 14.0693 9.62931 18.6472 12.7816C20.558 12.2418 22.6074 11.9711 24.6432 11.9618C26.679 11.9711 28.7299 12.2418 30.6444 12.7816C35.2167 9.62931 37.2255 10.2841 37.2255 10.2841C38.5295 13.6402 37.7091 16.118 37.4604 16.7321C38.9964 18.4383 39.9258 20.6119 39.9258 23.272C39.9258 32.6301 34.3217 34.6907 28.9874 35.2938C29.8466 36.05 30.6122 37.5327 30.6122 39.8059C30.6122 43.0656 30.5845 45.6893 30.5845 46.4923C30.5845 47.1406 31.0157 47.9004 32.23 47.6611C41.7431 44.4358 48.5984 35.306 48.5984 24.5445C48.5984 11.0879 37.8729 0.179962 24.6432 0.179962Z" fill="white"/>
<path fill-rule="evenodd" clip-rule="evenodd" d="M9.76081 35.1623C9.70805 35.2838 9.52081 35.3197 9.35023 35.2366C9.17648 35.1571 9.07889 34.9921 9.13523 34.8706C9.1868 34.7459 9.37443 34.7116 9.54779 34.7943C9.72194 34.8742 9.82111 35.0409 9.76081 35.1623Z" fill="white"/>
<path fill-rule="evenodd" clip-rule="evenodd" d="M10.7311 36.263C10.6169 36.3707 10.3935 36.3207 10.242 36.1504C10.0853 35.9806 10.056 35.7534 10.1718 35.6441C10.2896 35.5363 10.5062 35.5868 10.6633 35.7566C10.82 35.9285 10.8505 36.1541 10.7311 36.263Z" fill="white"/>
<path fill-rule="evenodd" clip-rule="evenodd" d="M11.6757 37.6663C11.5289 37.77 11.2889 37.6727 11.1405 37.4561C10.9937 37.2394 10.9937 36.9796 11.1437 36.8755C11.2924 36.7714 11.5289 36.865 11.6792 37.08C11.8256 37.2999 11.8256 37.5602 11.6757 37.6663Z" fill="white"/>
<path fill-rule="evenodd" clip-rule="evenodd" d="M12.9697 39.0219C12.8384 39.1692 12.5587 39.1297 12.354 38.9287C12.1445 38.7323 12.0862 38.4534 12.2179 38.3062C12.3508 38.1585 12.6321 38.2001 12.8384 38.3994C13.0462 38.5955 13.1097 38.8763 12.9697 39.0219Z" fill="white"/>
<path fill-rule="evenodd" clip-rule="evenodd" d="M14.7548 39.8091C14.6969 40 14.4275 40.0867 14.1562 40.0056C13.8852 39.9221 13.7079 39.6986 13.7627 39.5057C13.819 39.3137 14.0895 39.2233 14.3629 39.31C14.6334 39.3931 14.8111 39.6151 14.7548 39.8091Z" fill="white"/>
<path fill-rule="evenodd" clip-rule="evenodd" d="M16.7153 39.9552C16.722 40.1561 16.4919 40.3227 16.2071 40.326C15.9207 40.3328 15.689 40.1702 15.6858 39.9725C15.6858 39.7696 15.9108 39.6046 16.1972 39.5997C16.482 39.5941 16.7153 39.7555 16.7153 39.9552Z" fill="white"/>
<path fill-rule="evenodd" clip-rule="evenodd" d="M18.5397 39.6393C18.5738 39.8353 18.3758 40.0367 18.093 40.0899C17.8149 40.142 17.5574 40.0209 17.5221 39.8265C17.4876 39.6255 17.6891 39.4242 17.9668 39.3722C18.2501 39.3221 18.5036 39.4399 18.5397 39.6393Z" fill="white"/>
</svg>
