<svg width="49" height="48" viewBox="0 0 49 48" fill="none" xmlns="http://www.w3.org/2000/svg">
<path fill-rule="evenodd" clip-rule="evenodd" d="M0.199951 24C0.199951 10.7452 10.9451 0 24.2 0C37.4548 0 48.2 10.7452 48.2 24C48.2 37.2548 37.4548 48 24.2 48C10.9451 48 0.199951 37.2548 0.199951 24ZM17.1605 19.8778H11.7216V36.2196H17.1605V19.8778ZM17.5187 14.8227C17.4834 13.2204 16.3376 12 14.477 12C12.6164 12 11.4 13.2204 11.4 14.8227C11.4 16.3918 12.5804 17.6473 14.4064 17.6473H14.4411C16.3376 17.6473 17.5187 16.3918 17.5187 14.8227ZM36.7753 26.8497C36.7753 21.8303 34.0922 19.4941 30.5131 19.4941C27.6254 19.4941 26.3325 21.0802 25.6106 22.1929V19.8783H20.1711C20.2427 21.4117 20.1711 36.22 20.1711 36.22H25.6106V27.0934C25.6106 26.605 25.6459 26.1178 25.7897 25.7682C26.1828 24.7924 27.0778 23.7822 28.5805 23.7822C30.5494 23.7822 31.3364 25.2807 31.3364 27.4767V36.2196H36.7751L36.7753 26.8497Z" fill="white"/>
</svg>
