<svg width="32" height="32" viewBox="0 0 32 32" fill="none" xmlns="http://www.w3.org/2000/svg">
<g id="fluent:globe-24-filled">
<path id="Vector" d="M11.4607 22.5992H20.54C19.6309 27.4001 17.8112 30.6666 16.0004 30.6666C14.2452 30.6666 12.4812 27.5951 11.5457 23.0333L11.4607 22.6021V22.5992ZM2.90042 22.6006H9.21432C9.74805 25.6545 10.6557 28.2537 11.8419 30.0711C8.1139 28.9643 4.9759 26.4254 3.1145 23.0099L2.90042 22.6006ZM22.7879 22.6006H29.1003C28.1974 24.3893 26.9387 25.9746 25.4013 27.2593C23.864 28.5439 22.0805 29.5007 20.1603 30.0711C21.2673 28.3726 22.131 25.9963 22.675 23.205L22.7879 22.6006ZM23.2307 13.0664H30.3716C30.8666 15.5037 30.737 18.0267 29.9947 20.4004H23.0973C23.3218 18.2844 23.3856 16.1543 23.2879 14.0286L23.2292 13.0649L23.2307 13.0664ZM1.63061 13.0649H8.7715C8.6181 15.2239 8.63428 17.3917 8.81988 19.5482L8.90346 20.399H2.00598C1.26323 18.0254 1.13309 15.5023 1.62767 13.0649H1.63061ZM10.9812 13.0649H21.0239C21.1914 15.226 21.1733 17.3975 20.9697 19.5555L20.8787 20.399H11.1234C10.8672 18.2027 10.8024 15.9882 10.9299 13.7807L10.9812 13.0649H21.0239H10.9783H10.9812ZM20.3186 2.17526L20.1603 1.92591C22.3396 2.57334 24.3391 3.7175 26.0018 5.2685C27.6644 6.81949 28.9449 8.73506 29.7425 10.8647H23.0122C22.5489 7.32085 21.609 4.27574 20.3172 2.17673L20.3186 2.17526ZM11.6645 1.98018L11.8434 1.92591C10.5501 3.90757 9.58969 6.8104 9.07942 10.2193L8.98851 10.8647H2.26112C3.04776 8.76467 4.30401 6.87241 5.9338 5.33255C7.56359 3.79269 9.52378 2.64601 11.6645 1.98018ZM16.0004 1.33331C17.9344 1.33331 19.8802 5.06195 20.7131 10.4026L20.782 10.8647H11.2188C12.012 5.27757 14.0121 1.33331 16.0004 1.33331Z" fill="#FE22BB"/>
</g>
</svg>
